<?xml version="1.0" standalone="no"?><!DOCTYPE svg PUBLIC "-//W3C//DTD SVG 1.1//EN" "http://www.w3.org/Graphics/SVG/1.1/DTD/svg11.dtd"><svg t="1774659907367" class="icon" viewBox="0 0 1024 1024" version="1.1" xmlns="http://www.w3.org/2000/svg" p-id="3759" xmlns:xlink="http://www.w3.org/1999/xlink" width="200" height="200"><path d="M927.687 716.245L821.163 868.011H221.952L112.754 710.926 379.079 55.922l138.482 351.46 149.134-348.8 119.837 306.204h221.041C946.318 154.439 751.93 0 520.22 0 240.583 0 14.222 226.318 14.222 505.899c0 279.58 226.361 505.884 505.998 505.884 218.383 0 404.793-138.439 476.7-335.474h-85.219l15.986 39.936z" fill="#E60012" p-id="3760"></path><path d="M471.182 701.824l-143.83-346.14-141.14 351.445 564.593 2.674L609.664 353.01z m348.871-247.623h202.383c0-7.993-2.646-15.972-2.646-23.965H812.06l7.993 23.965z m37.277 98.517h162.46c0-7.993 0-15.971 2.66-23.964H846.677l10.667 23.964z m165.106-71.893h-194.39l10.667 23.964h183.751v-23.964zM894.62 645.902h106.525c2.66-7.978 5.319-15.971 5.319-23.964H883.968l10.652 23.964z m-18.645-47.914h138.482c2.66-7.993 2.66-15.986 5.333-23.965H867.982l7.993 23.965z m-74.567-191.716h213.049c-2.66-7.993-2.66-15.972-5.32-23.964H790.757l10.652 23.964z" fill="#E60012" p-id="3761"></path></svg>