<?xml version="1.0" standalone="no"?><!DOCTYPE svg PUBLIC "-//W3C//DTD SVG 1.1//EN" "http://www.w3.org/Graphics/SVG/1.1/DTD/svg11.dtd"><svg t="1774659957042" class="icon" viewBox="0 0 1024 1024" version="1.1" xmlns="http://www.w3.org/2000/svg" p-id="5416" xmlns:xlink="http://www.w3.org/1999/xlink" width="200" height="200"><path d="M598.322052 350.90884399v511.11721802c24.98785401-6.39239502 48.677948-14.73266602 71.75170899-26.28561401V251.021698a157.39151001 157.39151001 0 0 0-34.59457398 19.86026c-24.33856201 19.211792-37.125 44.19964599-37.125 80.05902101m-209.444458-80.05902101a157.359375 157.359375 0 0 0-34.59375-19.86026v584.78302002c22.39233398 10.87234497 46.73089599 19.86108398 71.71875 26.25430297V350.90884399c0-35.859375-12.78561401-60.84722901-37.125-80.05902099" fill="#d81e06" p-id="5417"></path><path d="M655.34027099 180.53643799A353.953125 353.953125 0 0 0 512.55206299 151.102417c-50.625 0-98.65447998 10.22222901-142.20483398 28.81686401-7.04168701 3.82983398-16.03125 10.25518799-16.03125 21.12670898 0 19.21096802 26.28643799 14.73266602 59.581604 41.63543701 30.73260498 24.33938599 46.73089599 58.93313599 46.730896 97.355896v528.38195801a352.81768799 352.81768799 0 0 0 103.78125 0v-528.38195801c0-38.42276001 15.99911499-73.01651001 46.73089599-97.355896 33.328125-26.28561401 59.58160401-22.39151001 59.58160401-41.63543701 0-10.25518799-8.95660401-17.296875-15.38195802-20.509552" fill="#d81e06" p-id="5418"></path><path d="M512.19445801 897.78820801c-213.27346802 0-386.82641602-172.96875-386.82641601-386.859375A386.50177002 386.50177002 0 0 1 512.19445801 124.069458c213.27429199 0 386.859375 172.93579102 386.859375 386.82724 0 213.95571899-173.58508301 386.89151001-386.82641601 386.89151m0-807.663208C279.02777099 90.125 90.125 278.41143799 90.125 511.578125c0 233.13537598 188.93490601 421.42098999 421.453125 421.42098999 233.13537598 0 421.42098999-188.93572998 421.42098999-421.42098999C933.647583 278.41143799 744.712677 90.125 512.19528198 90.125" fill="#d81e06" p-id="5419"></path><path d="M151.946167 511.67535401c0 128.087677 66.59115601 240.82553101 167.77606201 304.23614502V539.87670898c-40.98696899 1.265625-56.33679199 25.60501099-60.84722901 35.859375-3.82901001 7.69180298-6.39321899 15.99911499-13.43490601 15.999115-12.17010498 0-21.775177-34.59375-21.775177-76.846344 0-42.28472901 9.60589599-76.87847901 21.775177-76.87847901 7.04168701 0 9.60589599 8.34027099 13.43490601 16.03125001 4.51043701 9.60589599 19.86026001 34.59375 60.84722901 35.210083V206.822052a360.053833 360.053833 0 0 0-167.77606202 304.85412597M814.19268799 575.73443604c-3.86196899 7.69180298-6.39404297 15.99911499-13.46786499 15.99911498-12.17010498 0-21.743042-34.59375-21.74304199-76.84634399 0-42.28472901 9.57376099-76.87847901 21.74304199-76.87847901 7.07464599 0 9.60589599 8.34027099 13.46786499 16.03125001 4.478302 9.60589599 19.21096802 33.29598999 58.28302002 35.21008301a359.37240601 359.37240601 0 0 0-166.543396-282.42883301v609.09027099A362.74740601 362.74740601 0 0 0 872.47570801 539.87506104c-39.72052002 2.53125-53.805542 26.25430298-58.28302002 35.859375" fill="#d81e06" p-id="5420"></path></svg>