<?xml version="1.0" standalone="no"?><!DOCTYPE svg PUBLIC "-//W3C//DTD SVG 1.1//EN" "http://www.w3.org/Graphics/SVG/1.1/DTD/svg11.dtd"><svg t="1774660000000" class="icon" viewBox="0 0 1024 1024" version="1.1" xmlns="http://www.w3.org/2000/svg" p-id="1000" xmlns:xlink="http://www.w3.org/1999/xlink" width="200" height="200"><path d="M320 128h384l192 192v512a64 64 0 0 1-64 64H320a64 64 0 0 1-64-64V192a64 64 0 0 1 64-64z m32 64a32 32 0 0 0-32 32v640a32 32 0 0 0 32 32h448a32 32 0 0 0 32-32V352h-160a32 32 0 0 1-32-32V192H352z m32 64h128v96H384V256z m0 160h320v64H384v-64z m0 128h320v64H384v-64z m0 128h256v64H384v-64z" fill="#1296db" p-id="1001"></path></svg>
