<?xml version="1.0" standalone="no"?><!DOCTYPE svg PUBLIC "-//W3C//DTD SVG 1.1//EN" "http://www.w3.org/Graphics/SVG/1.1/DTD/svg11.dtd"><svg t="1774659944713" class="icon" viewBox="0 0 1325 1024" version="1.1" xmlns="http://www.w3.org/2000/svg" p-id="5116" xmlns:xlink="http://www.w3.org/1999/xlink" width="258.7890625" height="200"><path d="M652.49547719 326.95717662c-10.28015674 0-18.84695439-6.85343744-20.56031346-17.13359531-3.42671929-32.5538304 0-66.82101987 0-101.08820822V66.52653568c0-5.14007837-1.71335906-34.26718947 1.71335908-34.26718947h104.51492864c3.42671929 0 1.71335906 61.68094151 1.71335908 68.53437894v178.18938596c0 6.85343744 3.42671929 20.56031346 0 25.70039182 0 3.42671929-1.71335906 8.56679765-3.4267193 11.99351694-5.14007837 10.28015674-22.27367367 8.56679765-30.84047017 8.56679766-18.84695439 1.71335906-34.26718947 1.71335906-53.11414387 1.71335909z m152.48899299-284.41767369C1003.7341696 93.9402877 1154.50980351 272.12967367 1163.07660116 482.87288889c15.42023509 248.43712398-169.6225883 471.17385614-414.63299298 505.44104563-270.71079765 35.98054855-526.00135908-169.6225883-543.13495439-445.47346432-15.42023509-229.5901696 138.78211811-443.76010411 361.51884914-498.58760706v263.85735908c0 29.12711111-1.71335906 44.54734621 30.84047132 44.54734621 17.13359531 0 34.26718947-1.71335906 51.40078365 0 29.12711111 1.71335906 23.98703275 27.41375204 23.98703275 51.40078478v109.65500585c-10.28015674-20.56031346-47.9740655-11.99351581-65.10765966-11.9935158H546.26718947c-13.70687602-1.71335906-18.84695439-8.56679765-20.56031345-20.56031346v-68.53437894V169.32810411C392.06483627 229.29568654 304.68350293 366.36444445 304.68350293 513.71335906c0 186.75618247 142.20883627 352.95205262 328.96501988 378.65244447V691.90274503c0-8.56679765 3.42671929-18.84695439-6.85343746-18.84695438h-51.40078476c-15.42023509 0-46.26070642 5.14007837-49.68742457-17.13359416-1.71335906-11.99351581 0-25.70039182 0-37.69390877v-113.08172516c0 8.56679765 3.42671929 17.13359531 13.706876 18.84695325 23.98703275 5.14007837 54.82750293 0 78.81453568 0 17.13359531 0 53.11414386-8.56679765 58.25422223 15.42023623 3.42671929 15.42023509 0 30.8404702 0 46.26070527v75.38781754c0 6.85343744 0 6.85343744 5.14007837 10.28015672 3.42671929 1.71335906 11.99351581 0 17.13359417 0v-97.66149006c0-17.13359531-6.85343744-51.40078478 20.5603146-51.40078477 25.70039182-3.42671929 54.82750293 0 80.52789475 0 17.13359531 0 49.68742457 6.85343744 47.97406549-20.56031345v101.08820933c0 11.99351581-5.14007837 37.69390877 0 47.97406549 15.42023509 34.26718947-90.80805262 17.13359531-101.08820935 20.56031346-6.85343744 1.71335906-3.42671929-1.71335906-5.14007836 6.85343744-1.71335906 3.42671929 0 10.28015674 0 13.70687602V890.65244445C923.20627485 864.95205262 1067.1284702 700.46954269 1067.1284702 512c0-147.34891465-87.38133333-284.41767367-219.31001289-346.09861405v274.13751581c0 5.14007837-3.42671929 34.26718947 0 37.69390877 0 10.28015674-5.14007837 20.56031346-17.13359415 20.56031345-25.70039182 5.14007837-58.25422222 0-83.95461518 0-17.13359531 0-41.12062691-6.85343744-49.68742458 11.99351696v-97.66149008c0-17.13359531-8.56679765-56.54086316 13.70687601-61.68094151 20.56031346-6.85343744 90.80805262 13.70687602 94.23477079-17.1335953 5.14007837-44.54734621 0-95.94813099 0-142.20883627V42.53950293z" fill="#34bf1b" p-id="5117"></path></svg>