<?xml version="1.0" standalone="no"?><!DOCTYPE svg PUBLIC "-//W3C//DTD SVG 1.1//EN" "http://www.w3.org/Graphics/SVG/1.1/DTD/svg11.dtd"><svg t="1774659936647" class="icon" viewBox="0 0 1024 1024" version="1.1" xmlns="http://www.w3.org/2000/svg" p-id="4815" xmlns:xlink="http://www.w3.org/1999/xlink" width="200" height="200"><path d="M384.95072134 212.95552866c42.12259634-34.65865366 91.25480731-62.40504775 153.01081687-77.625 36.50841321-9.73557724 74.41225955-13.88942275 110.92067358-12.49399045 2.79086545 2.75841321 11.22836545 33.26322134 23.85216321 38.8125 12.65625 5.54927866 57.56971179-8.30769269 80.02644268 22.19711545 9.83293232 19.40625-4.21875 26.35096179 8.4375 40.20793313 84.24519269 47.12019268 99.65985589-11.09855732 133.37740366 42.96634552 14.0192309 45.75721179-57.56971179 37.44951911-75.80769268 90.11899045-5.61418232-8.30769269-25.3125-19.40625-30.8942309-23.56009551-58.9651441-36.05408679-127.76322134-49.91105732-200.78004776-30.50480815-138.95913455 36.02163455-221.80889411 174.68870225-183.90504775 310.56490366 36.50841321 135.87620225 178.29086545 214.89663455 317.28245141 178.84254858 40.72716321-9.73557724 91.25480731-38.8125 120.72115365-63.76802865 25.3125-18.04326911 46.34134634-48.54807724 67.40264494-59.61418314 0 0-15.44711545 18.01081769-18.23798091 30.50480814 0 0 7.00961545 2.75841321 19.66586545-9.73557724 12.62379775-12.46153821 22.4567309-36.02163455 22.45673089-36.02163455-1.42788455 8.30769269 4.21875 29.109375-19.66586543 59.61418231a293.98197134 293.98197134 0 0 1-28.07091404 33.26322134c4.21875-1.39543231 12.65625-8.30769269 25.28004858-15.25240365 9.80048089-8.30769269 23.85216321-31.86778821 23.85216321-31.86778821-1.39543231 11.0661059-16.875 58.21875-36.50841321 80.38341321a321.53365366 321.53365366 0 0 1-68.79807724 69.34975955c-19.63341321 15.25240366-39.26682725 27.71394269-77.203125 38.8125-211.97596179 55.46033679-429.59855732-67.95432724-487.1682691-274.54326911-14.0192309-48.515625-14.0192309-103.94350955-9.8004809-156.64543313 0 0-37.90384634 23.56009634-84.24519186 23.56009634C122.41466321 480.52163455 90.125 441.70913455 90.125 400.13822134c0-40.24038455 47.70432724-94.30528821 47.70432724-92.90985589 0 2.79086545-2.79086545 45.75721179 40.72716321 47.1526441 88.46394268-8.3401441 131.98197134-76.2620191 200.78004776-133.11778821l5.61418313-8.30769268z m192.34254776 234.30288455h192.31009635c22.48918232 0 39.33173089 16.64783679 39.33173089 38.8125v117.86538455c0 22.16466321-16.875 38.8125-39.33173089 38.8125h-192.31009634c-22.48918232 0-39.33173089-16.64783679-39.3317309-38.8125V486.03846179c0-20.76923089 19.66586545-38.8125 39.3317309-38.8125z" fill="#E2301F" p-id="4816"></path></svg>