<?xml version="1.0" standalone="no"?><!DOCTYPE svg PUBLIC "-//W3C//DTD SVG 1.1//EN" "http://www.w3.org/Graphics/SVG/1.1/DTD/svg11.dtd"><svg t="1774659941698" class="icon" viewBox="0 0 1024 1024" version="1.1" xmlns="http://www.w3.org/2000/svg" p-id="4965" xmlns:xlink="http://www.w3.org/1999/xlink" width="200" height="200"><path d="M513.3756512 331.7897568c30.26431573 0 60.52863147 5.50260267 85.29034347 19.25910933 2.75130133 0 5.50260267 2.75130133 5.50260266 5.50260374v151.3215776c0 13.75650667-8.253904 16.50780907-16.507808 5.50260373l-66.03123413-66.0312352c-2.75130133-2.75130133-2.75130133-2.75130133-8.253904 0-57.77733013 57.77733013-112.80335893 110.0520576-170.58068907 165.0780864-2.75130133 2.75130133-13.75650667 2.75130133-16.507808-2.75130133-8.253904-24.76171307-16.50780907-49.52342613-16.50780906-79.78774187-5.50260267-110.0520576 90.7929472-198.0937024 203.59630613-198.0937024zM672.95113387 229.9916032c-24.76171307-60.52863147-90.7929472-99.0468512-165.0780864-99.0468512-101.79815253 0-184.33719573 79.78774187-184.33719574 176.08329173 0 8.253904 0 22.01041173 2.7513024 30.26431574 2.75130133 13.75650667 5.50260267 13.75650667 16.507808 5.50260266 44.0208224-41.26952107 104.54945387-66.03123413 167.82938667-66.03123413 19.2591104 0 41.26952107 2.75130133 60.52863147 5.50260267 8.253904 2.75130133 8.253904 2.75130133 16.50780906-2.75130134 24.76171307-16.50780907 49.52342613-27.5130144 79.7877408-38.51821973 5.50260267 5.50260267 11.00520533-2.75130133 5.50260374-11.0052064zM276.763728 282.26633067c-66.03123413 5.50260267-123.80856427 57.77733013-145.818976 126.5598656-30.26431573 99.0468512 19.2591104 198.0937024 112.80335893 231.10932053 8.253904 2.75130133 19.2591104 5.50260267 27.5130144 5.50260267 13.75650667 0 16.50780907-2.75130133 8.253904-13.75650774-22.01041173-57.77733013-30.26431573-121.05726293-8.253904-178.834592 5.50260267-19.2591104 16.50780907-38.51821973 24.76171307-55.0260288 5.50260267-8.253904 5.50260267-5.50260267 2.75130133-16.50780906-5.50260267-27.5130144-8.253904-57.77733013-13.75650773-88.04164587 2.75130133-5.50260267 0-11.00520533-8.253904-11.00520533zM202.47858987 678.45373653c-16.50780907 63.2799328 16.50780907 132.06246827 77.03643946 176.08329067 82.5390432 60.52863147 195.34240107 44.0208224 253.1197312-35.7669184 5.50260267-8.253904 13.75650667-16.50780907 16.50780907-24.761712 2.75130133-13.75650667 2.75130133-16.50780907-8.25390507-13.75650773-60.52863147 5.50260267-123.80856427-8.253904-173.33198933-46.77212374-16.50780907-13.75650667-30.26431573-24.76171307-44.02082347-41.26952213-5.50260267-5.50260267-5.50260267-5.50260267-16.507808-8.253904-27.5130144-2.75130133-57.77733013-8.253904-85.29034453-16.50780907-8.253904-2.75130133-13.75650667 0-19.25910933 11.0052064zM557.3964736 868.29353493c57.77733013 35.7669184 132.06246827 24.76171307 189.8397984-16.50780906 82.5390432-60.52863147 101.79815253-173.3319904 44.0208224-253.1197312-5.50260267-8.253904-13.75650667-16.50780907-19.25910933-22.01041067-8.253904-5.50260267-13.75650667-5.50260267-16.50780907 2.75130133-13.75650667 60.52863147-44.0208224 112.80335893-99.0468512 151.32157867-16.50780907 13.75650667-35.7669184 22.01041173-55.0260288 27.51301333-8.253904 2.75130133-8.253904 2.75130133-13.75650667 13.75650774-8.253904 24.76171307-24.76171307 49.52342613-41.26952106 79.7877408 2.75130133 5.50260267 2.75130133 13.75650667 11.00520533 16.50780906zM849.03442453 590.41209067c49.52342613-44.0208224 66.03123413-115.55466027 44.02082347-187.08849707-30.26431573-99.0468512-132.06246827-151.32157867-228.3580192-121.05726293-8.253904 2.75130133-19.2591104 5.50260267-27.51301333 13.75650773-8.253904 5.50260267-13.75650667 8.253904-2.7513024 16.507808 49.52342613 30.26431573 93.54424853 79.78774187 112.80335893 137.565072 5.50260267 19.2591104 8.253904 38.51821973 13.75650667 60.5286304 0 8.253904 0 8.253904 5.50260373 16.50780907 22.01041173 19.2591104 41.26952107 41.26952107 60.52863147 63.2799328 8.253904 5.50260267 13.75650667 8.253904 22.01041066 0z" fill="#d81e06" p-id="4966"></path><path d="M507.87304747 733.47976533c-30.26431573 0-60.52863147-5.50260267-85.29034347-19.2591104-2.75130133 0-5.50260267-2.75130133-5.50260373-5.50260266v-151.32157867c0-13.75650667 8.253904-16.50780907 16.50780906-5.50260267l66.03123414 66.03123414c2.75130133 2.75130133 2.75130133 2.75130133 8.253904 0 57.77733013-55.0260288 112.80335893-110.0520576 170.58068906-165.07808534 2.75130133-2.75130133 13.75650667-2.75130133 16.507808 2.75130134 8.253904 24.76171307 16.50780907 49.52342613 16.50780907 79.7877408 0 110.0520576-93.54424853 198.0937024-203.59630613 198.09370346z" fill="#d81e06" p-id="4967"></path></svg>