<?xml version="1.0" standalone="no"?><!DOCTYPE svg PUBLIC "-//W3C//DTD SVG 1.1//EN" "http://www.w3.org/Graphics/SVG/1.1/DTD/svg11.dtd"><svg t="1774660378392" class="icon" viewBox="0 0 1024 1024" version="1.1" xmlns="http://www.w3.org/2000/svg" p-id="2846" xmlns:xlink="http://www.w3.org/1999/xlink" width="200" height="200"><path d="M1023.854038 255.945155S1035.627515 1.681925 768.78641 0H255.36043C-11.407549 1.681925 0.07342 255.945155 0.07342 255.945155v511.890309s-11.554096 254.263229 255.213882 255.945154h513.425981c266.841105-1.681925 255.213883-255.945155 255.213882-255.945154z" fill="#E60020" p-id="2847"></path><path d="M899.53782 525.930729v-13.894165a387.574091 387.574091 0 1 0-7.312719 77.587945h-80.439905a309.401128 309.401128 0 0 1-253.239449 228.083696V662.605442h195.980861v-73.127187H557.96073v-63.547526z m-83.950011-73.127187H583.555245l132.360209-173.165179a308.377348 308.377348 0 0 1 99.526101 173.311433zM308.231386 279.784618l132.360208 173.165178H208.705284a308.377348 308.377348 0 0 1 99.526102-173.165178z m157.954724 309.839891h-195.980861v73.127187h195.980861v155.102764A309.10862 309.10862 0 0 1 203.367 525.930729h262.81911zM511.963729 411.77919L376.385924 234.006999a309.766764 309.766764 0 0 1 271.374991 0z" fill="#FFFFFF" p-id="2848"></path></svg>