<?xml version="1.0" standalone="no"?><!DOCTYPE svg PUBLIC "-//W3C//DTD SVG 1.1//EN" "http://www.w3.org/Graphics/SVG/1.1/DTD/svg11.dtd"><svg t="1774659933670" class="icon" viewBox="0 0 1325 1024" version="1.1" xmlns="http://www.w3.org/2000/svg" p-id="4664" xmlns:xlink="http://www.w3.org/1999/xlink" width="258.7890625" height="200"><path d="M1055.52941188 558.58823563c-77.64705844-101.64705844-297.8823525-125.64705844-297.88235344-125.64705938l87.52941187-53.64705844L650.35294156 272 455.52941187 369.41176437l156.70588219 87.52941188c254.1176475-4.23529406 327.52941187 131.29411781 327.52941188 131.29411781 63.52941188 199.05882375-302.1176475 213.17647031-302.1176475 213.17647032C425.8823525 824 328.47058813 640.47058813 328.47058813 640.47058813l-127.05882376 4.23529406c151.05882375 300.70588219 693.17647031 169.41176437 693.17647125 169.41176531 283.76470594-86.1176475 160.94117625-255.52941187 160.94117625-255.52941187z m-405.17647032-125.64705938l-87.52941187-43.76470594 83.29411781-57.8823525 87.52941094 48-83.29411688 53.64705844z" fill="#1D2088" p-id="4665"></path><path d="M665.8823525 176c-142.58823563-9.8823525-420.70588219 4.23529406-454.58823469 173.64705844-29.64705844 135.52941187 176.47058813 213.17647031 321.8823525 227.29411781-29.64705844 19.76470594-59.29411781 33.8823525-87.52941187 53.64705938 67.76470594 38.1176475 131.29411781 77.64705844 194.82352968 111.52941187l176.47058813-101.64705937-176.47058813-91.76470594c-33.8823525-4.23529406-67.76470594 4.23529406-87.52941187 4.23529406-97.41176438 0-240-105.8823525-200.47058813-203.29411781 73.41176437-207.52941188 556.23529406-179.29411781 605.64705938 29.64705937h136.94117625c-63.52941188-159.52941187-292.23529406-193.41176437-429.17647125-203.29411781z m-19.764705 410.82352969l87.52941094 48-93.17647032 48-83.29411781-48 88.94117719-48z" fill="#5AA572" p-id="4666"></path></svg>