<?xml version="1.0" standalone="no"?><!DOCTYPE svg PUBLIC "-//W3C//DTD SVG 1.1//EN" "http://www.w3.org/Graphics/SVG/1.1/DTD/svg11.dtd"><svg t="1774660373174" class="icon" viewBox="0 0 1024 1024" version="1.1" xmlns="http://www.w3.org/2000/svg" p-id="2542" xmlns:xlink="http://www.w3.org/1999/xlink" width="200" height="200"><path d="M203.06 0h617.88Q1024 0 1024 203.06v617.88Q1024 1024 820.94 1024H203.06Q0 1024 0 820.94V203.06Q0 0 203.06 0z" fill="#FFC300" p-id="2543"></path><path d="M431.206 320.205H389.12c-7.68 22.733-10.24 31.846-10.24 31.846H215.04s-2.458-9.113-10.24-31.846h-41.984v31.846H112.64v38.093h160.358v31.437H120.525v40.96h152.473v28.979H120.525v40.96h152.473v29.594H112.64v40.345h145.408s-40.96 52.634-147.149 57.447v43.008s115.303 11.161 186.061-81.204c0 0 48.23 79.565 184.32 81.306V658.33s-91.34 2.764-144.282-56.013H481.28V561.97H322.15V532.48H473.6v-40.96H322.15v-28.98H473.6v-40.96H322.15v-31.436h159.13v-38.093h-50.176z m195.687 310.579h48.947a516.506 516.506 0 0 0 52.02-164.66h42.598v103.527a412.058 412.058 0 0 1-6.861 61.44h45.158a376.832 376.832 0 0 0 5.223-61.44V466.125h29.388v-39.936H814.08V393.01h-43.52v33.383H613.069v39.936h68.813a437.965 437.965 0 0 1-54.99 164.454z" p-id="2544"></path><path d="M542.72 328.397v375.398h317.44a53.76 53.76 0 0 0 53.658-53.76V328.397z m329.728 321.638a13.005 13.005 0 0 1-13.005 13.107H583.68V368.64h288.768z" p-id="2545"></path></svg>